<?xml version="1.0" encoding="UTF-8" standalone="no"?>
<!DOCTYPE svg PUBLIC "-//W3C//DTD SVG 1.1//EN" "http://www.w3.org/Graphics/SVG/1.1/DTD/svg11.dtd">
<svg xmlns="http://www.w3.org/2000/svg" version="1.1" viewBox="0.00 0.00 815.00 605.00">
<path fill="#212820" d="
  M 407.01 157.52
  A 0.48 0.48 0.0 0 1 406.53 158.00
  L 233.38 158.00
  A 0.43 0.43 0.0 0 1 232.95 157.57
  Q 232.99 154.23 233.21 152.50
  C 238.12 113.62 256.06 77.54 283.37 50.07
  C 310.74 22.53 347.96 4.25 386.96 0.95
  A 0.96 0.96 0.0 0 1 387.99 1.91
  L 387.99 112.40
  A 0.59 0.59 0.0 0 1 387.40 112.99
  L 354.66 112.99
  A 0.63 0.63 0.0 0 1 354.03 112.36
  L 354.03 45.13
  A 0.67 0.67 0.0 0 0 353.12 44.51
  Q 297.62 66.88 276.60 123.01
  A 0.45 0.45 0.0 0 0 276.92 123.61
  Q 279.02 124.13 281.58 124.10
  Q 307.37 123.81 355.43 124.05
  C 372.01 124.13 388.65 123.83 406.71 124.03
  A 0.30 0.30 0.0 0 1 407.01 124.33
  L 407.01 157.52
  Z"
/>
<path fill="#212820" d="
  M 418.81 1.03
  Q 425.66 1.27 429.01 1.72
  Q 452.07 4.76 473.64 14.63
  C 524.61 37.96 560.94 83.64 571.91 139.04
  Q 573.84 148.74 574.10 156.82
  A 1.15 1.14 89.0 0 1 572.96 158.01
  L 463.73 158.01
  A 0.67 0.66 -90.0 0 1 463.07 157.34
  L 463.07 124.70
  A 0.68 0.68 0.0 0 1 463.75 124.02
  L 529.97 124.02
  A 0.96 0.96 0.0 0 0 530.88 122.74
  Q 524.18 103.88 511.90 87.34
  Q 489.28 56.87 453.51 43.79
  A 0.83 0.83 0.0 0 0 452.44 44.85
  C 452.89 46.12 452.57 47.68 452.57 49.43
  Q 452.56 83.26 452.51 118.11
  Q 452.48 139.13 452.69 149.88
  Q 453.05 168.40 452.45 181.75
  A 1.32 1.31 1.4 0 1 451.13 183.00
  L 418.41 183.00
  A 0.40 0.40 0.0 0 1 418.01 182.60
  L 418.01 1.80
  A 0.77 0.77 0.0 0 1 418.81 1.03
  Z"
/>
<path fill="#212820" d="
  M 388.00 170.66
  L 388.00 348.34
  A 0.53 0.53 0.0 0 1 387.36 348.86
  C 382.64 347.93 377.38 347.69 372.13 346.63
  Q 337.75 339.72 308.65 320.40
  Q 279.52 301.06 260.49 271.56
  Q 238.42 237.34 233.09 195.65
  A 0.89 0.89 0.0 0 1 233.97 194.65
  L 341.95 194.65
  A 1.04 1.04 0.0 0 1 342.99 195.69
  L 342.99 227.47
  A 1.01 1.01 0.0 0 1 341.98 228.48
  L 277.67 228.48
  A 0.74 0.73 -27.7 0 0 277.25 229.82
  C 278.05 230.37 277.85 230.87 278.09 231.45
  Q 293.55 268.71 326.50 291.74
  Q 339.38 300.74 353.25 306.48
  A 0.56 0.56 0.0 0 0 354.03 305.96
  L 354.03 170.67
  A 0.68 0.68 0.0 0 1 354.71 169.99
  L 387.32 169.99
  A 0.68 0.67 0.0 0 1 388.00 170.66
  Z"
/>
<path fill="#212820" d="
  M 452.72 240.63
  L 452.72 306.48
  A 0.41 0.40 79.2 0 0 453.27 306.86
  Q 465.21 302.22 476.27 295.00
  Q 512.06 271.62 528.71 232.16
  C 529.13 231.14 528.96 230.47 529.71 229.64
  A 0.71 0.71 0.0 0 0 529.18 228.45
  L 399.76 228.45
  A 0.77 0.76 90.0 0 1 399.00 227.68
  L 399.00 195.58
  A 0.89 0.88 0.0 0 1 399.89 194.70
  L 572.82 194.70
  A 1.18 1.17 3.6 0 1 573.99 196.02
  Q 571.57 214.67 564.84 234.06
  C 549.37 278.63 516.63 314.32 474.14 334.38
  Q 451.35 345.14 422.96 348.54
  C 421.52 348.71 420.05 349.05 418.61 348.89
  A 0.70 0.69 -86.8 0 1 418.00 348.20
  L 418.00 240.36
  A 0.36 0.36 0.0 0 1 418.36 240.00
  L 452.09 240.00
  A 0.63 0.63 0.0 0 1 452.72 240.63
  Z"
/>
<path fill="#212820" d="
  M 478.99 533.71
  Q 464.77 534.26 450.78 531.13
  C 421.71 524.63 396.91 502.45 392.31 472.34
  C 389.89 456.48 392.84 440.28 401.12 425.99
  C 414.45 403.00 439.48 388.85 465.99 386.37
  Q 468.59 386.13 472.32 385.99
  Q 486.54 385.44 500.53 388.57
  C 529.61 395.07 554.41 417.25 559.01 447.36
  C 561.43 463.22 558.48 479.42 550.20 493.71
  C 536.87 516.70 511.84 530.85 485.32 533.32
  Q 482.73 533.57 478.99 533.71
  Z
  M 536.44 465.61
  C 537.86 442.67 530.84 421.59 513.24 406.71
  C 497.73 393.60 477.30 391.27 458.40 395.75
  C 436.91 400.84 421.74 419.05 416.36 440.13
  C 411.78 458.08 414.03 478.43 423.23 494.53
  C 437.65 519.77 464.36 530.88 492.58 524.27
  C 507.29 520.82 520.14 510.27 527.50 496.99
  Q 535.39 482.75 536.44 465.61
  Z"
/>
<path fill="#212820" d="
  M 206.12 412.69
  Q 206.01 413.48 206.00 414.25
  Q 205.93 420.03 206.03 498.07
  C 206.04 506.10 206.14 516.45 209.94 522.84
  C 212.68 527.46 216.59 528.58 220.81 530.65
  A 0.60 0.60 0.0 0 1 220.56 531.79
  Q 195.93 532.08 181.78 531.71
  Q 181.18 531.70 180.80 531.52
  A 0.48 0.48 0.0 0 1 180.75 530.68
  C 182.40 529.65 185.62 528.72 187.44 527.33
  C 195.68 521.05 195.90 508.02 195.98 498.75
  Q 196.15 479.85 195.97 409.50
  C 195.95 400.19 191.13 393.16 182.19 390.52
  Q 180.97 390.15 180.99 389.30
  A 0.60 0.60 0.0 0 1 181.59 388.72
  L 212.67 388.72
  A 1.45 1.43 -22.2 0 1 213.69 389.14
  L 320.33 495.78
  A 0.25 0.25 0.0 0 0 320.76 495.62
  Q 321.05 492.07 321.05 490.25
  Q 320.98 446.99 320.99 412.75
  C 320.99 402.16 318.04 393.03 306.55 390.38
  A 0.78 0.77 51.4 0 1 306.72 388.85
  L 347.06 388.85
  A 0.62 0.62 0.0 0 1 347.50 389.91
  L 346.99 390.42
  A 1.31 1.28 17.1 0 1 346.29 390.78
  C 335.55 392.61 331.99 401.72 331.99 411.50
  Q 332.00 439.53 331.99 532.06
  A 1.84 1.83 89.0 0 1 330.22 533.90
  Q 328.73 533.95 327.05 533.30
  A 1.39 1.27 -8.8 0 1 326.57 532.98
  L 207.09 412.37
  A 0.57 0.57 0.0 0 0 206.12 412.69
  Z"
/>
<path fill="#212820" d="
  M 98.79 388.94
  C 106.55 388.95 114.28 388.76 122.15 389.02
  A 0.57 0.57 0.0 0 1 122.66 389.80
  L 122.53 390.14
  A 0.91 0.91 0.0 0 1 121.81 390.70
  Q 115.02 391.50 112.03 397.76
  Q 109.66 402.72 109.64 407.25
  Q 109.37 478.19 109.61 507.75
  Q 109.63 510.24 110.16 514.91
  C 111.05 522.71 114.14 527.97 122.18 530.35
  A 0.62 0.62 0.0 0 1 122.36 531.46
  Q 121.80 531.85 120.88 531.86
  Q 108.67 531.95 98.72 531.94
  Q 88.77 531.94 76.56 531.83
  Q 75.64 531.83 75.08 531.44
  A 0.62 0.62 0.0 0 1 75.26 530.33
  C 83.30 527.95 86.40 522.70 87.30 514.90
  Q 87.83 510.23 87.85 507.74
  Q 88.13 478.18 87.93 407.24
  Q 87.91 402.71 85.55 397.75
  Q 82.57 391.48 75.78 390.68
  A 0.91 0.91 0.0 0 1 75.06 390.12
  L 74.93 389.78
  A 0.57 0.57 0.0 0 1 75.44 389.00
  C 83.31 388.74 91.04 388.94 98.79 388.94
  Z"
/>
<path fill="#212820" d="
  M 653.55 461.56
  A 0.31 0.31 0.0 0 1 653.80 461.05
  C 663.65 461.32 673.79 461.69 682.27 457.76
  Q 695.58 451.59 700.18 437.27
  C 703.18 427.94 702.58 418.08 697.44 409.74
  C 691.37 399.89 680.37 396.94 668.74 396.57
  Q 654.80 396.13 641.70 396.59
  A 1.18 1.18 0.0 0 0 640.56 397.76
  Q 640.37 435.93 640.44 491.88
  Q 640.44 495.83 640.31 500.62
  Q 640.09 508.32 641.23 516.82
  Q 642.71 527.82 653.35 530.19
  A 0.85 0.85 0.0 0 1 653.16 531.87
  L 607.14 531.87
  A 0.69 0.69 0.0 0 1 606.85 530.55
  C 612.73 527.86 616.09 525.56 617.56 519.04
  Q 618.12 516.57 618.64 512.20
  Q 619.01 509.07 619.00 505.28
  Q 618.86 441.96 618.99 408.63
  Q 619.00 406.01 618.47 403.47
  C 617.32 398.04 615.88 393.62 610.45 391.31
  C 609.29 390.82 607.79 390.88 606.81 389.88
  A 0.56 0.55 -22.1 0 1 607.21 388.94
  Q 649.85 388.68 683.24 389.00
  C 698.03 389.14 713.03 394.52 721.36 407.13
  Q 723.17 409.86 724.08 412.89
  C 728.91 428.98 723.67 445.25 709.89 454.62
  Q 698.80 462.16 684.94 464.60
  A 0.99 0.99 0.0 0 0 684.28 466.12
  Q 684.43 466.35 685.41 467.47
  Q 701.10 485.65 714.95 501.04
  Q 730.51 518.34 749.19 529.05
  Q 756.27 533.12 763.11 535.14
  Q 763.63 535.29 763.96 535.69
  A 0.65 0.65 0.0 0 1 763.47 536.76
  C 752.51 536.80 741.62 536.46 731.64 533.48
  Q 715.62 528.69 703.19 518.37
  C 698.01 514.06 692.46 508.24 687.23 502.16
  Q 675.26 488.20 653.55 461.56
  Z"
/>
<path fill="#212820" d="
  M 93.76 605.00
  L 82.26 605.00
  Q 78.32 604.47 78.19 600.71
  A 0.67 0.67 0.0 0 1 78.83 600.02
  Q 80.62 599.96 84.22 600.76
  Q 86.71 601.30 92.74 600.69
  A 0.59 0.58 -14.4 0 0 93.22 599.88
  L 93.10 599.60
  A 0.98 0.97 -10.3 0 0 92.23 599.00
  L 84.36 598.75
  A 5.71 5.46 52.6 0 1 82.96 598.53
  C 79.98 597.68 77.37 596.91 78.22 592.98
  C 78.97 589.50 81.29 589.24 84.50 588.37
  A 1.63 1.57 37.9 0 1 84.97 588.32
  L 94.27 589.03
  A 1.48 1.46 -25.9 0 1 94.95 589.26
  Q 96.83 590.43 97.44 592.45
  A 0.94 0.94 0.0 0 1 96.71 593.65
  Q 94.12 594.12 92.14 592.86
  A 1.17 1.11 -27.1 0 0 91.59 592.70
  L 85.62 592.63
  A 1.61 1.04 -38.7 0 0 85.33 592.66
  L 83.35 593.06
  A 0.51 0.51 0.0 0 0 83.18 594.00
  Q 84.23 594.66 85.30 594.70
  Q 94.74 595.09 95.33 595.12
  A 1.82 1.74 -27.9 0 1 96.11 595.34
  Q 97.64 596.22 97.87 599.54
  Q 98.17 604.13 93.76 605.00
  Z"
/>
<path fill="#212820" d="
  M 122.94 605.00
  L 105.81 605.00
  L 105.44 590.27
  A 1.43 1.42 89.4 0 1 106.86 588.81
  L 122.65 588.81
  A 0.39 0.39 0.0 0 1 123.04 589.20
  L 123.04 592.31
  A 0.61 0.61 0.0 0 1 122.43 592.92
  L 110.65 592.92
  A 0.80 0.80 0.0 0 0 109.85 593.79
  L 109.89 594.23
  A 0.76 0.75 87.5 0 0 110.64 594.92
  L 120.95 594.92
  A 1.08 1.08 0.0 0 1 122.03 596.00
  L 122.03 597.80
  A 1.13 1.12 90.0 0 1 120.91 598.93
  L 110.83 598.93
  A 0.97 0.96 -87.7 0 0 109.87 599.82
  L 109.85 600.09
  A 0.78 0.78 0.0 0 0 110.63 600.93
  L 122.39 600.93
  A 0.62 0.61 0.9 0 1 123.01 601.56
  L 122.94 605.00
  Z"
/>
<path fill="#212820" d="
  M 173.47 605.00
  L 162.99 605.00
  Q 158.52 604.20 158.19 599.50
  Q 158.04 597.33 157.97 590.29
  A 1.46 1.46 0.0 0 1 159.43 588.81
  L 161.78 588.81
  A 1.17 1.16 -90.0 0 1 162.94 589.98
  L 162.94 599.52
  A 1.51 1.50 0.0 0 0 164.45 601.02
  L 171.92 601.02
  A 2.10 2.10 0.0 0 0 174.02 598.92
  L 174.02 588.96
  A 0.15 0.14 -90.0 0 1 174.16 588.81
  L 177.64 588.81
  A 0.45 0.45 0.0 0 1 178.09 589.26
  L 178.09 601.97
  A 1.06 1.05 68.2 0 1 177.77 602.73
  Q 176.05 604.41 173.47 605.00
  Z"
/>
<path fill="#212820" d="
  M 236.84 605.00
  L 233.02 605.00
  L 232.72 593.58
  A 0.62 0.62 0.0 0 0 232.10 592.98
  L 225.55 592.98
  A 0.65 0.64 0.0 0 1 224.90 592.34
  L 224.90 589.36
  A 0.53 0.52 0.0 0 1 225.43 588.84
  L 244.37 588.84
  A 0.52 0.52 0.0 0 1 244.89 589.36
  L 244.89 592.41
  A 0.59 0.58 -90.0 0 1 244.31 593.00
  L 237.66 593.00
  A 0.58 0.58 0.0 0 0 237.08 593.57
  L 236.84 605.00
  Z"
/>
<path fill="#212820" d="
  M 263.18 605.00
  L 259.53 605.00
  L 258.74 599.14
  A 3.75 3.73 -69.9 0 0 257.80 597.10
  L 251.05 589.70
  A 0.54 0.54 0.0 0 1 251.49 588.79
  L 255.28 589.08
  A 3.39 3.38 -17.2 0 1 257.67 590.34
  L 260.39 593.74
  A 1.47 1.47 0.0 0 0 262.59 593.86
  L 266.60 589.86
  A 4.40 4.35 19.7 0 1 269.31 588.60
  L 271.97 588.36
  A 0.87 0.87 0.0 0 1 272.67 589.84
  L 264.76 597.75
  A 3.06 3.02 62.8 0 0 263.92 600.42
  Q 264.34 602.82 263.18 605.00
  Z"
/>
<path fill="#212820" d="
  M 312.46 605.00
  L 308.32 605.00
  L 303.96 595.57
  A 0.22 0.21 44.7 0 0 303.57 595.57
  L 299.18 605.00
  L 295.46 605.00
  Q 292.57 599.88 290.53 593.54
  C 290.08 592.11 289.13 590.74 289.03 589.36
  A 0.54 0.54 0.0 0 1 289.57 588.77
  L 292.72 588.77
  A 1.23 1.22 78.2 0 1 293.84 589.51
  L 297.21 597.57
  A 0.47 0.47 0.0 0 0 298.08 597.57
  L 301.16 589.75
  A 0.93 0.91 -86.5 0 1 301.77 589.20
  C 304.49 588.46 306.17 588.56 307.21 591.58
  Q 308.62 595.67 309.35 596.95
  Q 309.91 597.93 310.11 598.25
  A 0.29 0.29 0.0 0 0 310.63 598.20
  L 313.94 589.80
  A 1.64 1.64 0.0 0 1 315.85 588.80
  Q 316.77 589.01 318.00 588.62
  A 0.77 0.77 0.0 0 1 318.94 589.65
  L 312.46 605.00
  Z"
/>
<path fill="#212820" d="
  M 349.10 605.00
  L 345.11 605.00
  L 344.91 593.62
  A 0.66 0.66 0.0 0 0 344.25 592.97
  L 338.00 592.97
  A 0.90 0.90 0.0 0 1 337.10 592.07
  L 337.10 589.72
  A 0.90 0.90 0.0 0 1 338.00 588.82
  L 356.16 588.82
  A 0.93 0.93 0.0 0 1 357.09 589.75
  L 357.09 592.06
  A 0.91 0.90 -0.0 0 1 356.18 592.96
  L 349.92 592.96
  A 0.62 0.62 0.0 0 0 349.30 593.57
  L 349.10 605.00
  Z"
/>
<path fill="#212820" d="
  M 407.44 605.00
  L 397.81 605.00
  C 391.54 604.25 391.53 598.63 392.23 593.57
  C 393.04 587.68 401.74 588.45 406.64 588.73
  C 410.91 588.97 412.81 591.28 413.00 595.54
  Q 413.15 599.00 412.80 600.55
  Q 412.00 604.02 407.44 605.00
  Z
  M 408.7245 595.8950
  A 3.15 3.15 0.0 0 0 405.6188 592.7013
  L 399.7593 592.6195
  A 3.15 3.15 0.0 0 0 396.5657 595.7252
  L 396.5355 597.8850
  A 3.15 3.15 0.0 0 0 399.6412 601.0787
  L 405.5007 601.1605
  A 3.15 3.15 0.0 0 0 408.6943 598.0548
  L 408.7245 595.8950
  Z"
/>
<path fill="#212820" d="
  M 458.95 605.00
  L 455.02 605.00
  L 454.88 593.57
  A 0.59 0.59 0.0 0 0 454.29 592.99
  L 447.66 592.99
  A 0.68 0.68 0.0 0 1 446.98 592.31
  L 446.98 589.77
  A 0.96 0.95 90.0 0 1 447.93 588.81
  L 465.50 588.81
  A 1.62 1.62 0.0 0 1 467.12 590.56
  L 467.06 591.32
  A 1.82 1.81 2.0 0 1 465.25 593.00
  L 459.74 593.00
  A 0.61 0.60 0.5 0 0 459.13 593.59
  L 458.95 605.00
  Z"
/>
<path fill="#212820" d="
  M 498.34 605.00
  L 488.84 605.00
  Q 484.55 604.47 483.43 600.79
  Q 481.77 595.35 484.49 591.00
  C 486.35 588.04 494.44 588.61 497.95 588.86
  Q 502.61 589.19 503.63 593.59
  A 1.02 1.01 -10.5 0 1 502.77 594.83
  Q 500.97 595.08 499.47 594.31
  C 496.22 592.65 492.50 592.54 489.21 593.25
  A 1.11 1.09 -84.8 0 0 488.41 593.93
  Q 487.19 596.98 488.44 599.97
  A 1.13 1.10 83.9 0 0 489.22 600.62
  Q 493.18 601.46 497.74 600.39
  A 1.96 1.89 18.0 0 0 498.46 600.04
  Q 499.83 598.97 502.66 598.92
  A 1.01 1.01 0.0 0 1 503.67 600.08
  Q 503.02 604.29 498.34 605.00
  Z"
/>
<path fill="#212820" d="
  M 525.79 605.00
  L 515.01 605.00
  Q 509.26 603.06 509.94 595.48
  C 510.40 590.31 512.95 588.83 517.91 588.69
  Q 521.95 588.58 524.98 588.75
  C 531.27 589.12 532.32 594.73 531.27 599.77
  Q 530.37 604.09 525.79 605.00
  Z
  M 526.8936 595.9314
  A 3.10 3.10 0.0 0 0 523.8044 592.8206
  L 517.7245 592.7994
  A 3.10 3.10 0.0 0 0 514.6137 595.8886
  L 514.6064 597.9686
  A 3.10 3.10 0.0 0 0 517.6956 601.0794
  L 523.7755 601.1006
  A 3.10 3.10 0.0 0 0 526.8863 598.0114
  L 526.8936 595.9314
  Z"
/>
<path fill="#212820" d="
  M 573.34 605.00
  L 569.35 605.00
  L 569.07 589.81
  A 0.99 0.99 0.0 0 1 570.05 588.80
  Q 578.15 588.68 582.95 588.82
  Q 587.53 588.95 588.24 592.91
  Q 589.06 597.49 586.06 599.42
  C 584.25 600.59 577.41 599.92 574.62 599.94
  A 0.68 0.68 0.0 0 0 573.95 600.70
  Q 574.34 603.78 573.34 605.00
  Z
  M 584.0491 594.3261
  A 1.44 1.44 0.0 0 0 582.5941 592.9012
  L 575.1745 592.9789
  A 1.44 1.44 0.0 0 0 573.7497 594.4339
  L 573.7509 594.5539
  A 1.44 1.44 0.0 0 0 575.2059 595.9788
  L 582.6255 595.9011
  A 1.44 1.44 0.0 0 0 584.0503 594.4461
  L 584.0491 594.3261
  Z"
/>
<path fill="#212820" d="
  M 637.45 605.00
  L 627.22 605.00
  C 621.91 603.76 621.61 599.83 621.89 594.87
  Q 622.19 589.49 627.49 588.84
  Q 633.22 588.15 637.75 588.85
  Q 642.31 589.55 642.89 593.99
  C 643.55 599.08 643.31 603.85 637.45 605.00
  Z
  M 638.5092 596.2663
  A 3.36 3.36 0.0 0 0 635.1905 592.8655
  L 629.4309 592.7951
  A 3.36 3.36 0.0 0 0 626.0301 596.1138
  L 626.0108 597.6937
  A 3.36 3.36 0.0 0 0 629.3295 601.0945
  L 635.0891 601.1649
  A 3.36 3.36 0.0 0 0 638.4899 597.8462
  L 638.5092 596.2663
  Z"
/>
<path fill="#212820" d="
  M 672.88 605.00
  L 669.00 605.00
  Q 668.03 602.38 668.12 598.75
  A 1.74 1.71 -28.0 0 1 668.41 597.83
  Q 668.71 597.37 668.82 597.06
  A 0.83 0.83 0.0 0 0 667.40 596.25
  L 662.20 602.42
  A 0.62 0.62 0.0 0 1 661.24 602.41
  L 655.98 595.82
  A 0.27 0.27 0.0 0 0 655.52 595.90
  C 654.51 598.80 655.17 601.98 654.82 605.00
  L 650.92 605.00
  L 650.86 589.25
  A 0.54 0.53 -87.6 0 1 651.44 588.71
  L 655.56 589.02
  A 1.45 1.43 72.5 0 1 656.56 589.55
  L 661.57 595.82
  A 0.44 0.43 45.4 0 0 662.25 595.83
  Q 665.71 591.56 667.28 589.58
  A 2.35 2.15 -56.6 0 1 670.08 588.88
  Q 670.69 589.20 671.86 588.70
  A 0.72 0.72 0.0 0 1 672.86 589.36
  L 672.88 605.00
  Z"
/>
<path fill="#212820" d="
  M 710.26 605.00
  L 697.80 605.00
  Q 693.56 604.30 694.17 600.47
  A 0.75 0.74 -83.6 0 1 694.95 599.84
  Q 696.09 599.90 699.55 600.71
  Q 701.82 601.24 708.11 600.90
  A 0.67 0.66 74.4 0 0 708.66 599.92
  L 708.62 599.84
  A 1.66 1.65 74.7 0 0 707.10 598.97
  Q 700.88 599.20 695.13 597.66
  A 1.36 1.35 7.5 0 1 694.12 596.35
  L 694.12 592.41
  A 3.12 3.12 0.0 0 1 696.58 589.36
  L 699.98 588.62
  A 4.34 4.08 -46.7 0 1 700.98 588.56
  L 709.60 589.07
  A 3.17 3.17 0.0 0 1 712.33 591.01
  L 712.68 591.83
  A 1.45 1.45 0.0 0 1 711.40 593.84
  Q 709.79 593.91 707.85 592.81
  A 3.31 3.30 -32.7 0 0 705.94 592.40
  L 699.38 592.98
  A 0.59 0.59 0.0 0 0 699.31 594.15
  Q 704.64 595.29 709.13 595.02
  A 4.17 3.39 -12.3 0 1 712.94 596.95
  Q 715.31 601.93 710.26 605.00
  Z"
/>
<path fill="#212820" d="
  M 146.57 605.00
  L 135.84 605.00
  Q 132.84 604.33 131.36 602.04
  A 2.13 2.12 23.0 0 1 131.05 601.28
  Q 130.10 596.29 131.22 592.19
  C 131.88 589.74 135.24 588.78 137.73 588.78
  C 143.62 588.76 149.44 587.38 151.08 593.52
  A 1.12 1.12 0.0 0 1 150.03 594.93
  Q 147.62 594.99 145.88 593.44
  A 0.63 0.58 -20.6 0 0 145.49 593.28
  L 138.07 592.71
  A 2.84 2.83 2.2 0 0 135.02 595.53
  L 135.02 598.22
  A 2.85 2.84 -1.6 0 0 138.03 601.06
  L 145.39 600.65
  A 0.88 0.87 21.1 0 0 145.94 600.41
  Q 147.47 598.94 150.19 599.01
  A 0.85 0.85 0.0 0 1 151.02 599.93
  Q 150.72 603.96 146.57 605.00
  Z"
/>
<path fill="#212820" d="
  M 206.36 605.00
  L 201.70 605.00
  Q 199.48 603.74 197.72 601.23
  A 2.20 2.18 -9.6 0 0 196.51 600.38
  Q 194.35 599.79 191.67 599.98
  A 0.72 0.71 -1.3 0 0 191.01 600.67
  L 190.86 605.00
  L 186.53 605.00
  L 186.06 589.71
  A 0.75 0.74 -1.1 0 1 186.80 588.95
  L 201.75 588.87
  A 0.76 0.75 -34.1 0 1 202.02 588.92
  Q 206.05 590.30 205.94 594.47
  Q 205.84 598.23 202.70 599.57
  A 0.60 0.59 -31.9 0 0 202.48 600.51
  L 206.36 605.00
  Z
  M 201.4302 594.4280
  A 1.48 1.48 0.0 0 0 199.9580 592.9402
  L 192.2381 592.8998
  A 1.48 1.48 0.0 0 0 190.7504 594.3720
  L 190.7498 594.4920
  A 1.48 1.48 0.0 0 0 192.2220 595.9798
  L 199.9419 596.0202
  A 1.48 1.48 0.0 0 0 201.4296 594.5480
  L 201.4302 594.4280
  Z"
/>
<path fill="#212820" d="
  M 217.89 605.00
  L 213.82 605.00
  L 213.74 589.53
  A 0.65 0.65 0.0 0 1 214.39 588.88
  L 217.17 588.88
  A 0.76 0.76 0.0 0 1 217.93 589.64
  L 217.89 605.00
  Z"
/>
<path fill="#212820" d="
  M 329.86 605.00
  L 325.85 605.00
  L 325.79 589.82
  A 1.06 1.06 0.0 0 1 326.85 588.76
  L 329.31 588.76
  A 0.70 0.69 0.4 0 1 330.01 589.46
  L 329.86 605.00
  Z"
/>
<path fill="#212820" d="
  M 436.69 605.00
  L 425.79 605.00
  Q 421.79 604.38 421.05 601.71
  Q 419.88 597.43 420.62 589.57
  A 0.83 0.83 0.0 0 1 421.45 588.82
  L 424.33 588.82
  A 0.65 0.65 0.0 0 1 424.98 589.47
  L 424.98 598.88
  A 1.95 1.93 7.1 0 0 426.46 600.76
  Q 429.86 601.60 434.54 600.82
  A 1.79 1.78 -4.8 0 0 436.03 599.06
  L 436.03 589.57
  A 0.71 0.71 0.0 0 1 436.74 588.86
  L 439.33 588.86
  A 1.20 1.19 85.8 0 1 440.51 589.89
  Q 442.11 600.81 436.69 605.00
  Z"
/>
<path fill="#212820" d="
  M 560.87 605.00
  L 557.20 605.00
  L 556.86 596.17
  A 0.56 0.55 -26.2 0 0 555.88 595.84
  L 550.43 602.32
  A 0.82 0.82 0.0 0 1 549.17 602.30
  L 544.27 596.17
  A 0.64 0.64 0.0 0 0 543.13 596.55
  L 542.97 605.00
  L 539.20 605.00
  L 539.07 589.58
  A 0.77 0.76 -3.7 0 1 539.75 588.81
  Q 542.05 588.54 543.71 588.96
  A 1.56 1.53 77.7 0 1 544.52 589.49
  L 549.50 595.72
  A 0.52 0.51 46.0 0 0 550.29 595.74
  L 555.65 589.38
  A 1.50 1.49 -70.0 0 1 556.80 588.84
  L 560.25 588.84
  A 0.68 0.67 -89.6 0 1 560.92 589.53
  L 560.87 605.00
  Z"
/>
<path fill="#212820" d="
  M 614.87 605.00
  L 609.97 605.00
  Q 605.84 598.98 600.54 600.04
  A 0.78 0.77 -11.1 0 0 599.92 600.95
  Q 600.37 603.38 599.19 605.00
  L 595.35 605.00
  Q 594.52 597.37 595.17 589.66
  A 0.71 0.71 0.0 0 1 595.85 589.02
  Q 605.20 588.87 610.00 588.89
  C 614.37 588.92 616.02 594.08 614.16 597.37
  C 613.43 598.67 612.17 598.93 611.41 599.94
  A 0.62 0.61 36.2 0 0 611.55 600.82
  Q 614.25 602.65 614.87 605.00
  Z
  M 610.2005 594.4737
  A 1.47 1.47 0.0 0 0 608.7485 592.9858
  L 601.2691 592.8944
  A 1.47 1.47 0.0 0 0 599.7812 594.3464
  L 599.7795 594.4863
  A 1.47 1.47 0.0 0 0 601.2315 595.9742
  L 608.7109 596.0656
  A 1.47 1.47 0.0 0 0 610.1988 594.6136
  L 610.2005 594.4737
  Z"
/>
<path fill="#212820" d="
  M 685.62 605.00
  L 681.17 605.00
  L 681.14 589.93
  A 0.88 0.86 -7.1 0 1 681.82 589.08
  Q 683.42 588.71 685.39 589.04
  A 0.66 0.65 -85.0 0 1 685.94 589.70
  L 685.62 605.00
  Z"
/>
<path fill="#212820" d="
  M 738.11 605.00
  L 721.04 605.00
  L 720.53 590.05
  A 1.16 1.16 0.0 0 1 721.69 588.84
  L 737.12 588.84
  A 1.33 1.32 90.0 0 1 738.44 590.17
  L 738.44 591.63
  A 1.31 1.31 0.0 0 1 737.13 592.94
  L 725.56 592.94
  A 0.50 0.49 -19.2 0 0 725.17 593.74
  L 725.74 594.46
  A 1.50 1.50 0.0 0 0 726.90 595.01
  L 737.06 595.01
  A 0.24 0.23 -87.7 0 1 737.29 595.27
  L 737.04 598.56
  A 0.42 0.42 0.0 0 1 736.62 598.95
  L 726.00 598.95
  A 0.97 0.97 0.0 0 0 725.03 599.92
  L 725.03 600.22
  A 0.79 0.78 0.0 0 0 725.82 601.00
  L 737.65 601.00
  A 1.14 1.12 76.0 0 1 738.65 601.61
  Q 739.63 603.45 738.11 605.00
  Z"
/>
<path fill="#212820" d="
  M 383.79 605.00
  L 380.39 605.00
  Q 379.75 602.36 379.97 599.77
  A 1.03 1.02 -87.7 0 0 378.95 598.66
  L 369.62 598.66
  A 0.54 0.54 0.0 0 0 369.08 599.19
  L 369.04 605.00
  L 364.37 605.00
  L 364.00 589.68
  A 0.72 0.72 0.0 0 1 364.72 588.94
  L 368.38 588.94
  A 0.64 0.64 0.0 0 1 369.02 589.58
  L 369.02 593.88
  A 0.59 0.58 0.0 0 0 369.61 594.46
  L 379.22 594.46
  A 0.76 0.75 0.0 0 0 379.98 593.71
  L 379.98 589.40
  A 0.44 0.43 -90.0 0 1 380.41 588.96
  L 383.52 588.96
  A 0.49 0.49 0.0 0 1 384.01 589.45
  L 383.79 605.00
  Z"
/>
<path fill="#212820" d="
  M 0.00 597.93
  L 0.00 594.47
  L 56.74 594.53
  A 0.21 0.20 -90.0 0 1 56.94 594.74
  L 56.94 597.83
  A 0.21 0.20 -88.7 0 1 56.73 598.04
  L 0.00 597.93
  Z"
/>
<path fill="#212820" d="
  M 815.00 595.73
  L 815.00 596.24
  Q 814.68 597.17 814.11 597.66
  A 1.23 1.23 0.0 0 1 813.33 597.94
  L 759.96 598.06
  A 1.60 1.60 0.0 0 1 758.36 596.40
  L 758.36 596.18
  A 1.59 1.59 0.0 0 1 759.95 594.53
  L 813.33 594.41
  A 1.14 1.14 0.0 0 1 814.19 594.80
  L 815.00 595.73
  Z"
/>
</svg>
