<svg xmlns="http://www.w3.org/2000/svg" xmlns:xlink="http://www.w3.org/1999/xlink" width="815" zoomAndPan="magnify" viewBox="0 0 611.25 453.749987" height="605" preserveAspectRatio="xMidYMid meet" version="1.0"><defs><clipPath id="248edf1fbb"><path d="M 0 0.152344 L 610.5 0.152344 L 610.5 453.347656 L 0 453.347656 Z M 0 0.152344 " clip-rule="nonzero"></path></clipPath></defs><path fill="#F5F2EE" d="M 304.882812 136.472656 C 304.882812 136.574219 304.847656 136.65625 304.777344 136.726562 C 304.707031 136.796875 304.625 136.832031 304.523438 136.832031 L 174.820312 136.832031 C 174.730469 136.832031 174.65625 136.800781 174.59375 136.738281 C 174.53125 136.675781 174.5 136.601562 174.5 136.511719 C 174.519531 134.84375 174.582031 133.578125 174.691406 132.714844 C 178.371094 103.589844 191.808594 76.5625 212.265625 55.984375 C 232.769531 35.355469 260.648438 21.664062 289.863281 19.191406 C 290.074219 19.175781 290.253906 19.238281 290.40625 19.382812 C 290.558594 19.523438 290.636719 19.699219 290.636719 19.910156 L 290.636719 102.675781 C 290.636719 102.796875 290.59375 102.902344 290.507812 102.988281 C 290.421875 103.074219 290.316406 103.117188 290.195312 103.117188 L 265.667969 103.117188 C 265.539062 103.117188 265.425781 103.070312 265.335938 102.980469 C 265.242188 102.886719 265.195312 102.777344 265.195312 102.644531 L 265.195312 52.285156 C 265.195312 52.203125 265.175781 52.125 265.136719 52.050781 C 265.097656 51.980469 265.046875 51.921875 264.976562 51.875 C 264.910156 51.828125 264.835938 51.800781 264.753906 51.789062 C 264.671875 51.78125 264.59375 51.789062 264.515625 51.820312 C 236.800781 62.992188 217.691406 82.59375 207.195312 110.625 C 207.160156 110.71875 207.164062 110.8125 207.214844 110.902344 C 207.261719 110.992188 207.335938 111.050781 207.433594 111.074219 C 208.484375 111.332031 209.648438 111.453125 210.925781 111.441406 C 223.804688 111.292969 242.246094 111.28125 266.246094 111.402344 C 278.664062 111.460938 291.128906 111.238281 304.660156 111.386719 C 304.808594 111.386719 304.882812 111.460938 304.882812 111.613281 Z M 304.882812 136.472656 " fill-opacity="1" fill-rule="nonzero"></path><path fill="#F5F2EE" d="M 313.722656 19.25 C 317.144531 19.371094 319.691406 19.542969 321.363281 19.765625 C 332.878906 21.285156 344.023438 24.507812 354.792969 29.4375 C 392.976562 46.914062 420.1875 81.132812 428.40625 122.632812 C 429.371094 127.476562 429.917969 131.914062 430.046875 135.949219 C 430.054688 136.195312 429.976562 136.402344 429.808594 136.578125 C 429.640625 136.753906 429.433594 136.839844 429.195312 136.839844 L 347.371094 136.839844 C 347.234375 136.839844 347.117188 136.792969 347.023438 136.695312 C 346.925781 136.597656 346.875 136.476562 346.875 136.339844 L 346.875 111.890625 C 346.875 111.75 346.925781 111.628906 347.027344 111.527344 C 347.125 111.429688 347.246094 111.378906 347.386719 111.378906 L 396.992188 111.378906 C 397.109375 111.378906 397.21875 111.355469 397.320312 111.300781 C 397.425781 111.246094 397.511719 111.171875 397.582031 111.078125 C 397.648438 110.980469 397.691406 110.875 397.707031 110.761719 C 397.722656 110.644531 397.710938 110.53125 397.671875 110.421875 C 394.324219 101.003906 389.585938 92.164062 383.453125 83.902344 C 372.160156 68.6875 357.578125 57.8125 339.714844 51.28125 C 339.46875 51.1875 339.25 51.234375 339.0625 51.421875 C 338.875 51.609375 338.824219 51.824219 338.914062 52.074219 C 339.25 53.027344 339.011719 54.195312 339.011719 55.507812 C 339.007812 72.398438 338.992188 89.550781 338.964844 106.953125 C 338.953125 117.449219 338.996094 125.382812 339.101562 130.75 C 339.28125 140 339.222656 147.957031 338.921875 154.625 C 338.910156 154.886719 338.808594 155.109375 338.617188 155.289062 C 338.425781 155.46875 338.199219 155.5625 337.933594 155.5625 L 313.421875 155.5625 C 313.339844 155.5625 313.269531 155.53125 313.210938 155.472656 C 313.152344 155.414062 313.125 155.34375 313.125 155.261719 L 313.125 19.828125 C 313.125 19.664062 313.183594 19.523438 313.300781 19.410156 C 313.417969 19.296875 313.558594 19.242188 313.722656 19.25 Z M 313.722656 19.25 " fill-opacity="1" fill-rule="nonzero"></path><path fill="#F5F2EE" d="M 290.644531 146.316406 L 290.644531 279.414062 C 290.644531 279.539062 290.59375 279.644531 290.496094 279.722656 C 290.398438 279.800781 290.289062 279.828125 290.164062 279.804688 C 286.628906 279.105469 282.6875 278.925781 278.753906 278.132812 C 261.585938 274.683594 245.734375 268.132812 231.203125 258.484375 C 216.65625 248.824219 204.632812 236.632812 195.128906 221.898438 C 184.105469 204.808594 177.265625 185.855469 174.601562 165.035156 C 174.578125 164.839844 174.632812 164.664062 174.765625 164.511719 C 174.894531 164.363281 175.0625 164.289062 175.261719 164.289062 L 256.148438 164.289062 C 256.363281 164.289062 256.546875 164.363281 256.699219 164.515625 C 256.851562 164.667969 256.925781 164.851562 256.925781 165.066406 L 256.925781 188.871094 C 256.925781 189.082031 256.851562 189.257812 256.707031 189.40625 C 256.558594 189.554688 256.378906 189.628906 256.171875 189.628906 L 207.996094 189.628906 C 207.726562 189.632812 207.550781 189.761719 207.46875 190.019531 C 207.386719 190.277344 207.457031 190.480469 207.683594 190.632812 C 208.28125 191.042969 208.132812 191.417969 208.3125 191.855469 C 216.03125 210.460938 228.121094 225.515625 244.574219 237.015625 C 251.007812 241.511719 257.6875 245.191406 264.613281 248.058594 C 264.679688 248.085938 264.746094 248.09375 264.816406 248.089844 C 264.886719 248.082031 264.953125 248.058594 265.011719 248.019531 C 265.070312 247.980469 265.117188 247.929688 265.148438 247.867188 C 265.179688 247.804688 265.199219 247.738281 265.195312 247.667969 L 265.195312 146.324219 C 265.195312 146.183594 265.246094 146.0625 265.347656 145.964844 C 265.445312 145.863281 265.566406 145.816406 265.707031 145.816406 L 290.132812 145.816406 C 290.273438 145.816406 290.394531 145.863281 290.496094 145.960938 C 290.59375 146.058594 290.644531 146.179688 290.644531 146.316406 Z M 290.644531 146.316406 " fill-opacity="1" fill-rule="nonzero"></path><path fill="#F5F2EE" d="M 339.125 198.730469 L 339.125 248.058594 C 339.125 248.164062 339.167969 248.25 339.257812 248.308594 C 339.34375 248.371094 339.4375 248.382812 339.535156 248.339844 C 345.5 246.023438 351.242188 243.0625 356.765625 239.457031 C 374.636719 227.78125 387.730469 212.089844 396.046875 192.386719 C 396.359375 191.621094 396.234375 191.121094 396.796875 190.496094 C 396.953125 190.328125 396.984375 190.132812 396.890625 189.921875 C 396.792969 189.710938 396.632812 189.605469 396.398438 189.605469 L 299.453125 189.605469 C 299.296875 189.605469 299.160156 189.550781 299.050781 189.4375 C 298.9375 189.324219 298.882812 189.1875 298.882812 189.03125 L 298.882812 164.984375 C 298.882812 164.800781 298.949219 164.648438 299.078125 164.519531 C 299.207031 164.390625 299.367188 164.324219 299.550781 164.324219 L 429.089844 164.324219 C 429.214844 164.324219 429.335938 164.351562 429.453125 164.402344 C 429.566406 164.457031 429.667969 164.527344 429.75 164.625 C 429.835938 164.71875 429.894531 164.824219 429.933594 164.945312 C 429.96875 165.066406 429.980469 165.1875 429.964844 165.3125 C 428.757812 174.628906 426.472656 184.125 423.109375 193.808594 C 411.523438 227.195312 386.996094 253.929688 355.167969 268.957031 C 343.789062 274.328125 331.007812 277.867188 316.832031 279.5625 C 315.753906 279.691406 314.652344 279.945312 313.574219 279.824219 C 313.441406 279.808594 313.335938 279.753906 313.246094 279.65625 C 313.160156 279.558594 313.117188 279.441406 313.117188 279.308594 L 313.117188 198.527344 C 313.117188 198.453125 313.140625 198.390625 313.195312 198.335938 C 313.246094 198.285156 313.3125 198.257812 313.386719 198.257812 L 338.652344 198.257812 C 338.78125 198.257812 338.894531 198.304688 338.984375 198.394531 C 339.078125 198.488281 339.125 198.601562 339.125 198.730469 Z M 339.125 198.730469 " fill-opacity="1" fill-rule="nonzero"></path><path fill="#F5F2EE" d="M 358.800781 418.269531 C 351.699219 418.546875 344.65625 417.902344 337.671875 416.339844 C 315.894531 411.46875 297.316406 394.855469 293.871094 372.300781 C 292.058594 360.417969 294.269531 348.285156 300.472656 337.578125 C 310.457031 320.359375 329.207031 309.757812 349.0625 307.902344 C 350.363281 307.78125 351.941406 307.6875 353.804688 307.617188 C 360.90625 307.34375 367.949219 307.984375 374.9375 309.550781 C 396.71875 314.417969 415.296875 331.03125 418.742188 353.585938 C 420.554688 365.46875 418.347656 377.601562 412.144531 388.308594 C 402.160156 405.527344 383.410156 416.128906 363.542969 417.980469 C 362.25 418.101562 360.671875 418.199219 358.800781 418.269531 Z M 401.835938 367.257812 C 402.902344 350.074219 397.640625 334.285156 384.457031 323.136719 C 372.839844 313.316406 357.535156 311.570312 343.378906 314.925781 C 327.28125 318.742188 315.917969 332.382812 311.886719 348.171875 C 308.457031 361.617188 310.140625 376.863281 317.035156 388.921875 C 327.835938 407.828125 347.84375 416.152344 368.980469 411.199219 C 380 408.613281 389.625 400.710938 395.140625 390.765625 C 399.082031 383.652344 401.3125 375.816406 401.835938 367.257812 Z M 401.835938 367.257812 " fill-opacity="1" fill-rule="nonzero"></path><path fill="#F5F2EE" d="M 154.402344 327.617188 C 154.34375 328.011719 154.316406 328.402344 154.3125 328.785156 C 154.277344 331.671875 154.28125 352.601562 154.332031 391.574219 C 154.339844 397.589844 154.414062 405.339844 157.261719 410.128906 C 159.316406 413.589844 162.242188 414.429688 165.40625 415.980469 C 165.617188 416.082031 165.699219 416.25 165.648438 416.480469 C 165.597656 416.710938 165.453125 416.828125 165.21875 416.832031 C 152.917969 416.976562 143.234375 416.957031 136.167969 416.773438 C 135.867188 416.769531 135.625 416.71875 135.433594 416.628906 C 135.304688 416.570312 135.238281 416.46875 135.230469 416.328125 C 135.21875 416.183594 135.277344 416.078125 135.394531 416 C 136.632812 415.230469 139.042969 414.53125 140.40625 413.492188 C 146.582031 408.789062 146.746094 399.027344 146.804688 392.082031 C 146.890625 382.644531 146.886719 360.359375 146.796875 325.226562 C 146.78125 318.253906 143.171875 312.988281 136.476562 311.011719 C 135.867188 310.824219 135.566406 310.519531 135.574219 310.097656 C 135.582031 309.976562 135.625 309.871094 135.714844 309.789062 C 135.800781 309.703125 135.90625 309.660156 136.027344 309.660156 L 159.308594 309.660156 C 159.605469 309.660156 159.863281 309.765625 160.070312 309.976562 L 239.953125 389.859375 C 240.011719 389.917969 240.078125 389.933594 240.152344 389.902344 C 240.230469 389.875 240.269531 389.820312 240.273438 389.738281 C 240.421875 387.964844 240.492188 386.625 240.492188 385.714844 C 240.457031 364.113281 240.441406 344.761719 240.449219 327.660156 C 240.449219 319.730469 238.238281 312.890625 229.628906 310.90625 C 229.488281 310.871094 229.375 310.792969 229.289062 310.671875 C 229.203125 310.550781 229.167969 310.414062 229.183594 310.269531 C 229.203125 310.121094 229.265625 310 229.375 309.902344 C 229.484375 309.804688 229.609375 309.757812 229.757812 309.757812 L 259.976562 309.757812 C 260.183594 309.757812 260.328125 309.851562 260.40625 310.046875 C 260.488281 310.238281 260.453125 310.40625 260.304688 310.554688 L 259.921875 310.933594 C 259.777344 311.078125 259.605469 311.167969 259.398438 311.203125 C 251.355469 312.574219 248.6875 319.398438 248.6875 326.726562 C 248.691406 340.722656 248.691406 370.828125 248.6875 417.035156 C 248.6875 417.214844 248.652344 417.386719 248.585938 417.550781 C 248.519531 417.71875 248.425781 417.863281 248.300781 417.992188 C 248.179688 418.121094 248.035156 418.222656 247.871094 418.296875 C 247.710938 418.367188 247.539062 418.40625 247.363281 418.414062 C 246.617188 418.4375 245.824219 418.289062 244.988281 417.964844 C 244.847656 417.910156 244.726562 417.828125 244.628906 417.722656 L 155.128906 327.378906 C 155.003906 327.25 154.855469 327.214844 154.691406 327.273438 C 154.523438 327.328125 154.425781 327.441406 154.402344 327.617188 Z M 154.402344 327.617188 " fill-opacity="1" fill-rule="nonzero"></path><path fill="#F5F2EE" d="M 74 309.828125 C 79.816406 309.832031 85.605469 309.691406 91.5 309.886719 C 91.570312 309.886719 91.632812 309.90625 91.695312 309.941406 C 91.753906 309.976562 91.804688 310.019531 91.84375 310.078125 C 91.878906 310.136719 91.902344 310.199219 91.910156 310.269531 C 91.917969 310.339844 91.90625 310.40625 91.882812 310.46875 L 91.785156 310.726562 C 91.6875 310.96875 91.507812 311.109375 91.246094 311.144531 C 87.855469 311.542969 85.414062 313.308594 83.917969 316.433594 C 82.734375 318.910156 82.140625 321.28125 82.128906 323.542969 C 81.996094 358.96875 81.988281 384.0625 82.105469 398.824219 C 82.117188 400.066406 82.253906 401.855469 82.519531 404.1875 C 83.183594 410.03125 85.5 413.972656 91.523438 415.753906 C 91.710938 415.808594 91.824219 415.929688 91.855469 416.125 C 91.886719 416.320312 91.820312 416.472656 91.65625 416.585938 C 91.378906 416.78125 91.007812 416.878906 90.550781 416.886719 C 84.453125 416.929688 78.917969 416.949219 73.949219 416.945312 C 68.980469 416.945312 63.445312 416.917969 57.351562 416.863281 C 56.890625 416.863281 56.519531 416.765625 56.242188 416.570312 C 56.078125 416.460938 56.011719 416.304688 56.042969 416.113281 C 56.074219 415.917969 56.1875 415.792969 56.375 415.738281 C 62.398438 413.957031 64.71875 410.023438 65.394531 404.179688 C 65.660156 401.847656 65.796875 400.0625 65.808594 398.816406 C 65.945312 384.054688 65.964844 358.960938 65.867188 323.535156 C 65.855469 321.273438 65.261719 318.902344 64.082031 316.425781 C 62.59375 313.292969 60.15625 311.527344 56.765625 311.128906 C 56.503906 311.09375 56.324219 310.953125 56.226562 310.710938 L 56.128906 310.457031 C 56.101562 310.390625 56.09375 310.324219 56.101562 310.253906 C 56.109375 310.1875 56.128906 310.121094 56.167969 310.0625 C 56.207031 310.007812 56.253906 309.960938 56.316406 309.925781 C 56.375 309.890625 56.441406 309.875 56.511719 309.871094 C 62.40625 309.675781 68.195312 309.828125 74 309.828125 Z M 74 309.828125 " fill-opacity="1" fill-rule="nonzero"></path><path fill="#F5F2EE" d="M 489.5625 364.222656 C 489.496094 364.148438 489.484375 364.0625 489.53125 363.972656 C 489.574219 363.882812 489.648438 363.839844 489.75 363.84375 C 497.128906 364.042969 504.722656 364.320312 511.074219 361.378906 C 517.722656 358.296875 522.195312 353.179688 524.492188 346.03125 C 526.738281 339.039062 526.289062 331.65625 522.4375 325.40625 C 517.890625 318.027344 509.652344 315.820312 500.941406 315.542969 C 493.980469 315.320312 487.226562 315.328125 480.683594 315.558594 C 480.449219 315.566406 480.246094 315.652344 480.082031 315.824219 C 479.917969 315.992188 479.832031 316.195312 479.832031 316.433594 C 479.738281 335.496094 479.707031 358.996094 479.742188 386.9375 C 479.742188 388.910156 479.707031 391.089844 479.644531 393.484375 C 479.535156 397.328125 479.765625 401.375 480.332031 405.617188 C 481.070312 411.113281 484.097656 414.449219 489.410156 415.632812 C 489.570312 415.667969 489.699219 415.753906 489.792969 415.886719 C 489.886719 416.019531 489.925781 416.164062 489.90625 416.328125 C 489.890625 416.488281 489.820312 416.625 489.695312 416.730469 C 489.574219 416.839844 489.433594 416.894531 489.269531 416.890625 L 454.796875 416.890625 C 454.675781 416.894531 454.566406 416.855469 454.46875 416.78125 C 454.375 416.703125 454.3125 416.605469 454.285156 416.488281 C 454.257812 416.367188 454.273438 416.253906 454.328125 416.144531 C 454.382812 416.035156 454.46875 415.953125 454.578125 415.902344 C 458.984375 413.886719 461.5 412.164062 462.601562 407.28125 C 462.882812 406.046875 463.152344 404.339844 463.410156 402.15625 C 463.597656 400.59375 463.6875 398.867188 463.679688 396.972656 C 463.609375 365.351562 463.609375 341.21875 463.671875 324.574219 C 463.679688 323.265625 463.546875 321.980469 463.285156 320.710938 C 462.421875 316.644531 461.34375 313.332031 457.277344 311.601562 C 456.40625 311.234375 455.285156 311.28125 454.550781 310.53125 C 454.421875 310.402344 454.394531 310.253906 454.464844 310.082031 C 454.535156 309.914062 454.664062 309.828125 454.847656 309.828125 C 476.144531 309.695312 495.128906 309.710938 511.800781 309.871094 C 522.882812 309.976562 534.117188 314.007812 540.355469 323.453125 C 541.261719 324.816406 541.941406 326.253906 542.394531 327.765625 C 546.011719 339.820312 542.085938 352.007812 531.765625 359.027344 C 526.226562 362.792969 519.996094 365.285156 513.074219 366.5 C 512.953125 366.523438 512.839844 366.570312 512.742188 366.648438 C 512.644531 366.726562 512.570312 366.824219 512.519531 366.9375 C 512.46875 367.050781 512.449219 367.171875 512.460938 367.296875 C 512.472656 367.421875 512.511719 367.535156 512.582031 367.640625 C 512.65625 367.753906 512.9375 368.09375 513.425781 368.652344 C 521.261719 377.730469 528.640625 386.113281 535.554688 393.796875 C 543.324219 402.4375 551.875 409.429688 561.203125 414.78125 C 564.738281 416.8125 568.214844 418.332031 571.632812 419.34375 C 571.890625 419.417969 572.101562 419.554688 572.269531 419.753906 C 572.402344 419.910156 572.425781 420.082031 572.339844 420.269531 C 572.253906 420.457031 572.105469 420.554688 571.902344 420.554688 C 563.691406 420.585938 555.535156 420.332031 548.058594 418.097656 C 540.058594 415.707031 532.953125 411.933594 526.746094 406.78125 C 522.867188 403.550781 518.707031 399.191406 514.789062 394.636719 C 508.8125 387.664062 500.402344 377.527344 489.5625 364.222656 Z M 489.5625 364.222656 " fill-opacity="1" fill-rule="nonzero"></path></svg>